<mxfile host="app.diagrams.net" modified="2021-10-21T01:37:52.709Z" agent="5.0 (Windows NT 10.0; Win64; x64) AppleWebKit/537.36 (KHTML, like Gecko) Chrome/94.0.4606.81 Safari/537.36" etag="AKvC5lafh64RpaXW2_30" version="15.5.6" type="github">
  <diagram name="Page-1" id="e7e014a7-5840-1c2e-5031-d8a46d1fe8dd">
    <mxGraphModel dx="1221" dy="681" grid="1" gridSize="10" guides="1" tooltips="1" connect="1" arrows="1" fold="1" page="1" pageScale="1" pageWidth="1169" pageHeight="827" background="none" math="0" shadow="0">
      <root>
        <mxCell id="0" />
        <mxCell id="1" parent="0" />
        <mxCell id="J2iDhyuSLUoWaeQbcDCQ-30" value="&lt;b&gt;Sistema de Banca&lt;/b&gt;" style="html=1;verticalAlign=top;fillColor=#dae8fc;strokeColor=#6c8ebf;" vertex="1" parent="1">
          <mxGeometry x="300" y="40" width="770" height="470" as="geometry" />
        </mxCell>
        <mxCell id="S2fQK8ypGB0jmmI-l9ko-154" value="Pasivos" style="html=1;" parent="1" vertex="1">
          <mxGeometry x="480" y="819" width="110" height="50" as="geometry" />
        </mxCell>
        <mxCell id="S2fQK8ypGB0jmmI-l9ko-155" value="Activos" style="html=1;" parent="1" vertex="1">
          <mxGeometry x="480" y="969" width="110" height="50" as="geometry" />
        </mxCell>
        <mxCell id="S2fQK8ypGB0jmmI-l9ko-156" value="Activos" style="html=1;" parent="1" vertex="1">
          <mxGeometry x="480" y="1080" width="110" height="50" as="geometry" />
        </mxCell>
        <mxCell id="S2fQK8ypGB0jmmI-l9ko-157" value="Pasivos" style="html=1;" parent="1" vertex="1">
          <mxGeometry x="480" y="1229" width="110" height="50" as="geometry" />
        </mxCell>
        <mxCell id="S2fQK8ypGB0jmmI-l9ko-164" style="edgeStyle=orthogonalEdgeStyle;rounded=0;orthogonalLoop=1;jettySize=auto;html=1;entryX=0.498;entryY=0.348;entryDx=0;entryDy=0;entryPerimeter=0;" parent="1" source="S2fQK8ypGB0jmmI-l9ko-158" target="S2fQK8ypGB0jmmI-l9ko-160" edge="1">
          <mxGeometry relative="1" as="geometry" />
        </mxCell>
        <mxCell id="S2fQK8ypGB0jmmI-l9ko-158" value="Cliente" style="" parent="1" vertex="1">
          <mxGeometry x="204" y="849" width="110" height="50" as="geometry" />
        </mxCell>
        <mxCell id="S2fQK8ypGB0jmmI-l9ko-159" value="Empresarial" style="html=1;" parent="1" vertex="1">
          <mxGeometry x="174" y="1109" width="80" height="50" as="geometry" />
        </mxCell>
        <mxCell id="S2fQK8ypGB0jmmI-l9ko-160" value="" style="shape=line;html=1;strokeWidth=6;strokeColor=#ff0000;rotation=0;" parent="1" vertex="1">
          <mxGeometry x="184" y="939" width="150" height="10" as="geometry" />
        </mxCell>
        <mxCell id="S2fQK8ypGB0jmmI-l9ko-161" value="Personal" style="html=1;" parent="1" vertex="1">
          <mxGeometry x="274" y="979" width="70" height="50" as="geometry" />
        </mxCell>
        <mxCell id="S2fQK8ypGB0jmmI-l9ko-162" value="" style="shape=line;html=1;strokeWidth=6;strokeColor=#ff0000;rotation=-90;" parent="1" vertex="1">
          <mxGeometry x="276" y="931" width="230" height="10" as="geometry" />
        </mxCell>
        <mxCell id="S2fQK8ypGB0jmmI-l9ko-163" value="" style="shape=line;html=1;strokeWidth=6;strokeColor=#ff0000;rotation=-90;" parent="1" vertex="1">
          <mxGeometry x="276" y="1179" width="230" height="10" as="geometry" />
        </mxCell>
        <mxCell id="S2fQK8ypGB0jmmI-l9ko-166" style="edgeStyle=orthogonalEdgeStyle;rounded=0;orthogonalLoop=1;jettySize=auto;html=1;entryX=0.497;entryY=0.682;entryDx=0;entryDy=0;entryPerimeter=0;exitX=0.81;exitY=0.653;exitDx=0;exitDy=0;exitPerimeter=0;" parent="1" source="S2fQK8ypGB0jmmI-l9ko-160" edge="1">
          <mxGeometry relative="1" as="geometry">
            <mxPoint x="306" y="950" as="sourcePoint" />
            <mxPoint x="305.5500000000002" y="978.8200000000002" as="targetPoint" />
            <Array as="points" />
          </mxGeometry>
        </mxCell>
        <mxCell id="S2fQK8ypGB0jmmI-l9ko-167" style="edgeStyle=orthogonalEdgeStyle;rounded=0;orthogonalLoop=1;jettySize=auto;html=1;entryX=0.5;entryY=0;entryDx=0;entryDy=0;exitX=0.2;exitY=0.539;exitDx=0;exitDy=0;exitPerimeter=0;" parent="1" source="S2fQK8ypGB0jmmI-l9ko-160" target="S2fQK8ypGB0jmmI-l9ko-159" edge="1">
          <mxGeometry relative="1" as="geometry">
            <mxPoint x="214" y="949" as="sourcePoint" />
            <mxPoint x="213.81000000000017" y="982.2900000000002" as="targetPoint" />
            <Array as="points" />
          </mxGeometry>
        </mxCell>
        <mxCell id="S2fQK8ypGB0jmmI-l9ko-168" style="edgeStyle=orthogonalEdgeStyle;rounded=0;orthogonalLoop=1;jettySize=auto;html=1;entryX=0.715;entryY=0.255;entryDx=0;entryDy=0;exitX=1;exitY=0.5;exitDx=0;exitDy=0;entryPerimeter=0;" parent="1" source="S2fQK8ypGB0jmmI-l9ko-159" target="S2fQK8ypGB0jmmI-l9ko-163" edge="1">
          <mxGeometry relative="1" as="geometry">
            <mxPoint x="308.65999999999997" y="1049.9999999999998" as="sourcePoint" />
            <mxPoint x="308.65999999999997" y="1214.61" as="targetPoint" />
            <Array as="points" />
          </mxGeometry>
        </mxCell>
        <mxCell id="S2fQK8ypGB0jmmI-l9ko-170" style="edgeStyle=orthogonalEdgeStyle;rounded=0;orthogonalLoop=1;jettySize=auto;html=1;exitX=0.2;exitY=0.539;exitDx=0;exitDy=0;exitPerimeter=0;entryX=0.209;entryY=0.24;entryDx=0;entryDy=0;entryPerimeter=0;" parent="1" target="S2fQK8ypGB0jmmI-l9ko-162" edge="1">
          <mxGeometry relative="1" as="geometry">
            <mxPoint x="344" y="1003.5" as="sourcePoint" />
            <mxPoint x="380" y="1003.81" as="targetPoint" />
            <Array as="points" />
          </mxGeometry>
        </mxCell>
        <mxCell id="S2fQK8ypGB0jmmI-l9ko-176" value="Ahorro" style="html=1;" parent="1" vertex="1">
          <mxGeometry x="710" y="1150" width="110" height="50" as="geometry" />
        </mxCell>
        <mxCell id="S2fQK8ypGB0jmmI-l9ko-177" value="Plazo Fijo" style="html=1;" parent="1" vertex="1">
          <mxGeometry x="710" y="1270" width="110" height="50" as="geometry" />
        </mxCell>
        <mxCell id="S2fQK8ypGB0jmmI-l9ko-178" value="Cuenta Corriente" style="html=1;" parent="1" vertex="1">
          <mxGeometry x="710" y="1208" width="110" height="50" as="geometry" />
        </mxCell>
        <mxCell id="S2fQK8ypGB0jmmI-l9ko-207" style="edgeStyle=orthogonalEdgeStyle;rounded=0;orthogonalLoop=1;jettySize=auto;html=1;" parent="1" source="S2fQK8ypGB0jmmI-l9ko-179" edge="1">
          <mxGeometry relative="1" as="geometry">
            <mxPoint x="880" y="815" as="targetPoint" />
          </mxGeometry>
        </mxCell>
        <mxCell id="S2fQK8ypGB0jmmI-l9ko-179" value="Ahorro" style="html=1;" parent="1" vertex="1">
          <mxGeometry x="710" y="790" width="110" height="50" as="geometry" />
        </mxCell>
        <mxCell id="S2fQK8ypGB0jmmI-l9ko-208" style="edgeStyle=orthogonalEdgeStyle;rounded=0;orthogonalLoop=1;jettySize=auto;html=1;" parent="1" source="S2fQK8ypGB0jmmI-l9ko-180" edge="1">
          <mxGeometry relative="1" as="geometry">
            <mxPoint x="880" y="875" as="targetPoint" />
          </mxGeometry>
        </mxCell>
        <mxCell id="S2fQK8ypGB0jmmI-l9ko-180" value="Cuenta Corriente" style="html=1;" parent="1" vertex="1">
          <mxGeometry x="710" y="850" width="110" height="50" as="geometry" />
        </mxCell>
        <mxCell id="S2fQK8ypGB0jmmI-l9ko-209" style="edgeStyle=orthogonalEdgeStyle;rounded=0;orthogonalLoop=1;jettySize=auto;html=1;" parent="1" edge="1">
          <mxGeometry relative="1" as="geometry">
            <mxPoint x="889" y="935" as="targetPoint" />
            <mxPoint x="819" y="935" as="sourcePoint" />
          </mxGeometry>
        </mxCell>
        <mxCell id="S2fQK8ypGB0jmmI-l9ko-181" value="Plazo Fijo" style="html=1;" parent="1" vertex="1">
          <mxGeometry x="710" y="910" width="110" height="50" as="geometry" />
        </mxCell>
        <mxCell id="S2fQK8ypGB0jmmI-l9ko-182" value="Créditos &amp;gt;= 1" style="html=1;" parent="1" vertex="1">
          <mxGeometry x="710" y="980" width="110" height="50" as="geometry" />
        </mxCell>
        <mxCell id="S2fQK8ypGB0jmmI-l9ko-183" value="Créditos = 1" style="html=1;" parent="1" vertex="1">
          <mxGeometry x="710" y="1080" width="110" height="50" as="geometry" />
        </mxCell>
        <mxCell id="S2fQK8ypGB0jmmI-l9ko-203" value="Tarjeta" style="html=1;" parent="1" vertex="1">
          <mxGeometry x="970" y="869" width="110" height="50" as="geometry" />
        </mxCell>
        <mxCell id="S2fQK8ypGB0jmmI-l9ko-210" value="" style="shape=line;html=1;strokeWidth=6;strokeColor=#ff0000;rotation=-90;" parent="1" vertex="1">
          <mxGeometry x="787.25" y="867.25" width="204.5" height="10" as="geometry" />
        </mxCell>
        <mxCell id="S2fQK8ypGB0jmmI-l9ko-211" style="edgeStyle=orthogonalEdgeStyle;rounded=0;orthogonalLoop=1;jettySize=auto;html=1;" parent="1" edge="1">
          <mxGeometry relative="1" as="geometry">
            <mxPoint x="970" y="893.29" as="targetPoint" />
            <mxPoint x="894" y="893" as="sourcePoint" />
            <Array as="points">
              <mxPoint x="894" y="893" />
            </Array>
          </mxGeometry>
        </mxCell>
        <mxCell id="S2fQK8ypGB0jmmI-l9ko-212" value="" style="shape=line;html=1;strokeWidth=6;strokeColor=#ff0000;rotation=-90;" parent="1" vertex="1">
          <mxGeometry x="774.5" y="1240" width="230" height="10" as="geometry" />
        </mxCell>
        <mxCell id="S2fQK8ypGB0jmmI-l9ko-213" style="edgeStyle=orthogonalEdgeStyle;rounded=0;orthogonalLoop=1;jettySize=auto;html=1;" parent="1" edge="1">
          <mxGeometry relative="1" as="geometry">
            <mxPoint x="890" y="1294.17" as="targetPoint" />
            <mxPoint x="820" y="1294.17" as="sourcePoint" />
          </mxGeometry>
        </mxCell>
        <mxCell id="S2fQK8ypGB0jmmI-l9ko-216" value="Tarjeta" style="html=1;" parent="1" vertex="1">
          <mxGeometry x="970" y="1189" width="110" height="50" as="geometry" />
        </mxCell>
        <mxCell id="S2fQK8ypGB0jmmI-l9ko-217" style="edgeStyle=orthogonalEdgeStyle;rounded=0;orthogonalLoop=1;jettySize=auto;html=1;" parent="1" edge="1">
          <mxGeometry relative="1" as="geometry">
            <mxPoint x="970" y="1220.29" as="targetPoint" />
            <mxPoint x="894" y="1220" as="sourcePoint" />
            <Array as="points">
              <mxPoint x="894" y="1220" />
            </Array>
          </mxGeometry>
        </mxCell>
        <mxCell id="J2iDhyuSLUoWaeQbcDCQ-2" value="Cliente" style="shape=umlActor;verticalLabelPosition=bottom;verticalAlign=top;html=1;outlineConnect=0;" vertex="1" parent="1">
          <mxGeometry x="156" y="174" width="26" height="50" as="geometry" />
        </mxCell>
        <mxCell id="J2iDhyuSLUoWaeQbcDCQ-3" value="Persona" style="shape=umlActor;verticalLabelPosition=bottom;verticalAlign=top;html=1;outlineConnect=0;" vertex="1" parent="1">
          <mxGeometry x="112" y="310" width="26" height="50" as="geometry" />
        </mxCell>
        <mxCell id="J2iDhyuSLUoWaeQbcDCQ-4" value="Empresa" style="shape=umlActor;verticalLabelPosition=bottom;verticalAlign=top;html=1;outlineConnect=0;" vertex="1" parent="1">
          <mxGeometry x="193" y="310" width="26" height="50" as="geometry" />
        </mxCell>
        <mxCell id="J2iDhyuSLUoWaeQbcDCQ-5" value="Abrir Cuenta" style="ellipse;whiteSpace=wrap;html=1;" vertex="1" parent="1">
          <mxGeometry x="344" y="174" width="120" height="70" as="geometry" />
        </mxCell>
        <mxCell id="J2iDhyuSLUoWaeQbcDCQ-6" value="Abrir Cuenta de Crédito (Activos)" style="ellipse;whiteSpace=wrap;html=1;" vertex="1" parent="1">
          <mxGeometry x="490" y="94" width="120" height="70" as="geometry" />
        </mxCell>
        <mxCell id="J2iDhyuSLUoWaeQbcDCQ-7" value="Abrir Cta de Corriente" style="ellipse;whiteSpace=wrap;html=1;" vertex="1" parent="1">
          <mxGeometry x="700" y="310" width="120" height="70" as="geometry" />
        </mxCell>
        <mxCell id="J2iDhyuSLUoWaeQbcDCQ-8" value="Abrir Cta Plazo Fijo" style="ellipse;whiteSpace=wrap;html=1;" vertex="1" parent="1">
          <mxGeometry x="700" y="414" width="120" height="70" as="geometry" />
        </mxCell>
        <mxCell id="J2iDhyuSLUoWaeQbcDCQ-9" value="Abrir Cta Créditos" style="ellipse;whiteSpace=wrap;html=1;" vertex="1" parent="1">
          <mxGeometry x="705" y="94" width="120" height="70" as="geometry" />
        </mxCell>
        <mxCell id="J2iDhyuSLUoWaeQbcDCQ-10" value="Crear Tarjeta" style="ellipse;whiteSpace=wrap;html=1;" vertex="1" parent="1">
          <mxGeometry x="942" y="254" width="120" height="70" as="geometry" />
        </mxCell>
        <mxCell id="J2iDhyuSLUoWaeQbcDCQ-11" value="Abrir Cta de Ahorro" style="ellipse;whiteSpace=wrap;html=1;" vertex="1" parent="1">
          <mxGeometry x="705" y="230" width="120" height="70" as="geometry" />
        </mxCell>
        <mxCell id="J2iDhyuSLUoWaeQbcDCQ-12" value="Abrir Cuenta Bancaria (Pasivos)" style="ellipse;whiteSpace=wrap;html=1;" vertex="1" parent="1">
          <mxGeometry x="490" y="264" width="120" height="70" as="geometry" />
        </mxCell>
        <mxCell id="J2iDhyuSLUoWaeQbcDCQ-13" style="edgeStyle=orthogonalEdgeStyle;rounded=0;orthogonalLoop=1;jettySize=auto;html=1;entryX=0.725;entryY=0.943;entryDx=0;entryDy=0;entryPerimeter=0;" edge="1" parent="1" target="J2iDhyuSLUoWaeQbcDCQ-10">
          <mxGeometry relative="1" as="geometry">
            <Array as="points">
              <mxPoint x="120" y="380" />
              <mxPoint x="120" y="560" />
              <mxPoint x="1029" y="560" />
            </Array>
            <mxPoint x="120" y="380" as="sourcePoint" />
            <mxPoint x="1029" y="334.00088913245526" as="targetPoint" />
          </mxGeometry>
        </mxCell>
        <mxCell id="J2iDhyuSLUoWaeQbcDCQ-14" style="edgeStyle=orthogonalEdgeStyle;rounded=0;orthogonalLoop=1;jettySize=auto;html=1;entryX=0.483;entryY=1;entryDx=0;entryDy=0;entryPerimeter=0;" edge="1" parent="1" target="J2iDhyuSLUoWaeQbcDCQ-10">
          <mxGeometry relative="1" as="geometry">
            <Array as="points">
              <mxPoint x="235" y="350" />
              <mxPoint x="421" y="350" />
              <mxPoint x="421" y="519" />
              <mxPoint x="1000" y="519" />
            </Array>
            <mxPoint x="235" y="350" as="sourcePoint" />
            <mxPoint x="1000" y="339" as="targetPoint" />
          </mxGeometry>
        </mxCell>
        <mxCell id="J2iDhyuSLUoWaeQbcDCQ-15" value="" style="endArrow=classic;html=1;rounded=0;exitX=1;exitY=1;exitDx=0;exitDy=0;exitPerimeter=0;entryX=0;entryY=0.5;entryDx=0;entryDy=0;" edge="1" parent="1" target="J2iDhyuSLUoWaeQbcDCQ-5">
          <mxGeometry width="50" height="50" relative="1" as="geometry">
            <mxPoint x="184" y="208.57999999999998" as="sourcePoint" />
            <mxPoint x="340" y="209" as="targetPoint" />
          </mxGeometry>
        </mxCell>
        <mxCell id="J2iDhyuSLUoWaeQbcDCQ-16" value="" style="endArrow=classic;html=1;rounded=0;entryX=0.5;entryY=0;entryDx=0;entryDy=0;exitX=0;exitY=0.5;exitDx=0;exitDy=0;" edge="1" parent="1" source="J2iDhyuSLUoWaeQbcDCQ-6" target="J2iDhyuSLUoWaeQbcDCQ-5">
          <mxGeometry width="50" height="50" relative="1" as="geometry">
            <mxPoint x="480" y="140" as="sourcePoint" />
            <mxPoint x="490" y="200" as="targetPoint" />
          </mxGeometry>
        </mxCell>
        <mxCell id="J2iDhyuSLUoWaeQbcDCQ-17" value="" style="endArrow=classic;html=1;rounded=0;entryX=0.5;entryY=1;entryDx=0;entryDy=0;exitX=0;exitY=0.5;exitDx=0;exitDy=0;" edge="1" parent="1" source="J2iDhyuSLUoWaeQbcDCQ-12" target="J2iDhyuSLUoWaeQbcDCQ-5">
          <mxGeometry width="50" height="50" relative="1" as="geometry">
            <mxPoint x="515.9999999999993" y="219" as="sourcePoint" />
            <mxPoint x="430" y="264" as="targetPoint" />
          </mxGeometry>
        </mxCell>
        <mxCell id="J2iDhyuSLUoWaeQbcDCQ-18" value="" style="endArrow=classic;html=1;rounded=0;entryX=1;entryY=1;entryDx=0;entryDy=0;exitX=0;exitY=0.5;exitDx=0;exitDy=0;" edge="1" parent="1" source="J2iDhyuSLUoWaeQbcDCQ-8" target="J2iDhyuSLUoWaeQbcDCQ-12">
          <mxGeometry width="50" height="50" relative="1" as="geometry">
            <mxPoint x="696" y="441" as="sourcePoint" />
            <mxPoint x="610" y="386" as="targetPoint" />
          </mxGeometry>
        </mxCell>
        <mxCell id="J2iDhyuSLUoWaeQbcDCQ-19" value="" style="endArrow=classic;html=1;rounded=0;entryX=1;entryY=0.5;entryDx=0;entryDy=0;exitX=0;exitY=0.5;exitDx=0;exitDy=0;" edge="1" parent="1" source="J2iDhyuSLUoWaeQbcDCQ-7" target="J2iDhyuSLUoWaeQbcDCQ-12">
          <mxGeometry width="50" height="50" relative="1" as="geometry">
            <mxPoint x="710" y="412.9999999999999" as="sourcePoint" />
            <mxPoint x="602.426406871193" y="287.74873734152914" as="targetPoint" />
          </mxGeometry>
        </mxCell>
        <mxCell id="J2iDhyuSLUoWaeQbcDCQ-20" value="" style="endArrow=classic;html=1;rounded=0;entryX=1;entryY=0;entryDx=0;entryDy=0;exitX=0;exitY=0.5;exitDx=0;exitDy=0;" edge="1" parent="1" source="J2iDhyuSLUoWaeQbcDCQ-11" target="J2iDhyuSLUoWaeQbcDCQ-12">
          <mxGeometry width="50" height="50" relative="1" as="geometry">
            <mxPoint x="710" y="329" as="sourcePoint" />
            <mxPoint x="620" y="263" as="targetPoint" />
          </mxGeometry>
        </mxCell>
        <mxCell id="J2iDhyuSLUoWaeQbcDCQ-21" value="" style="endArrow=classic;html=1;rounded=0;entryX=1;entryY=0.5;entryDx=0;entryDy=0;exitX=0;exitY=0.5;exitDx=0;exitDy=0;" edge="1" parent="1" source="J2iDhyuSLUoWaeQbcDCQ-10" target="J2iDhyuSLUoWaeQbcDCQ-11">
          <mxGeometry width="50" height="50" relative="1" as="geometry">
            <mxPoint x="932.5699999999999" y="281.37" as="sourcePoint" />
            <mxPoint x="824.9964068711929" y="276.621262658471" as="targetPoint" />
          </mxGeometry>
        </mxCell>
        <mxCell id="J2iDhyuSLUoWaeQbcDCQ-22" value="" style="endArrow=classic;html=1;rounded=0;entryX=1;entryY=0.5;entryDx=0;entryDy=0;exitX=0;exitY=0.5;exitDx=0;exitDy=0;" edge="1" parent="1" source="J2iDhyuSLUoWaeQbcDCQ-10" target="J2iDhyuSLUoWaeQbcDCQ-7">
          <mxGeometry width="50" height="50" relative="1" as="geometry">
            <mxPoint x="959.5735931288025" y="323.17126265846804" as="sourcePoint" />
            <mxPoint x="825" y="323.92" as="targetPoint" />
          </mxGeometry>
        </mxCell>
        <mxCell id="J2iDhyuSLUoWaeQbcDCQ-23" value="" style="endArrow=classic;html=1;rounded=0;entryX=1;entryY=0.5;entryDx=0;entryDy=0;exitX=0;exitY=0.5;exitDx=0;exitDy=0;" edge="1" parent="1" source="J2iDhyuSLUoWaeQbcDCQ-10" target="J2iDhyuSLUoWaeQbcDCQ-8">
          <mxGeometry width="50" height="50" relative="1" as="geometry">
            <mxPoint x="950.4999999999964" y="370" as="sourcePoint" />
            <mxPoint x="828.5" y="426" as="targetPoint" />
          </mxGeometry>
        </mxCell>
        <mxCell id="J2iDhyuSLUoWaeQbcDCQ-24" value="" style="endArrow=classic;html=1;rounded=0;entryX=1;entryY=0.5;entryDx=0;entryDy=0;exitX=0.5;exitY=0;exitDx=0;exitDy=0;" edge="1" parent="1" source="J2iDhyuSLUoWaeQbcDCQ-10" target="J2iDhyuSLUoWaeQbcDCQ-9">
          <mxGeometry width="50" height="50" relative="1" as="geometry">
            <mxPoint x="969.9999999999964" y="211" as="sourcePoint" />
            <mxPoint x="853" y="187" as="targetPoint" />
          </mxGeometry>
        </mxCell>
        <mxCell id="J2iDhyuSLUoWaeQbcDCQ-25" value="" style="endArrow=classic;html=1;rounded=0;entryX=1;entryY=0.5;entryDx=0;entryDy=0;exitX=0;exitY=0.5;exitDx=0;exitDy=0;" edge="1" parent="1" source="J2iDhyuSLUoWaeQbcDCQ-9" target="J2iDhyuSLUoWaeQbcDCQ-6">
          <mxGeometry width="50" height="50" relative="1" as="geometry">
            <mxPoint x="715" y="140" as="sourcePoint" />
            <mxPoint x="602.426406871193" y="149.25126265847098" as="targetPoint" />
          </mxGeometry>
        </mxCell>
        <mxCell id="J2iDhyuSLUoWaeQbcDCQ-27" value="Extends" style="endArrow=classic;endSize=6;endFill=1;html=1;rounded=0;dashed=1;strokeWidth=1;jumpSize=5;exitX=0.5;exitY=0;exitDx=0;exitDy=0;exitPerimeter=0;" edge="1" parent="1" source="J2iDhyuSLUoWaeQbcDCQ-3">
          <mxGeometry x="-0.1724" y="-2" width="160" relative="1" as="geometry">
            <mxPoint x="140" y="300" as="sourcePoint" />
            <mxPoint x="160" y="250" as="targetPoint" />
            <mxPoint as="offset" />
          </mxGeometry>
        </mxCell>
        <mxCell id="J2iDhyuSLUoWaeQbcDCQ-28" value="Extends" style="endArrow=classic;endSize=6;endFill=1;html=1;rounded=0;dashed=1;strokeWidth=1;jumpSize=5;exitX=0.5;exitY=0;exitDx=0;exitDy=0;exitPerimeter=0;" edge="1" parent="1" source="J2iDhyuSLUoWaeQbcDCQ-4">
          <mxGeometry x="-0.3658" y="-2" width="160" relative="1" as="geometry">
            <mxPoint x="150" y="310" as="sourcePoint" />
            <mxPoint x="180" y="250" as="targetPoint" />
            <mxPoint x="1" as="offset" />
          </mxGeometry>
        </mxCell>
      </root>
    </mxGraphModel>
  </diagram>
</mxfile>
